<?xml version="1.0" encoding="UTF-8" standalone="no"?>
<!-- Created with Inkscape (http://www.inkscape.org/) -->

<svg
   version="1.1"
   id="svg9"
   width="794"
   height="1123"
   viewBox="0 0 794 1123"
   sodipodi:docname="bitmap22.svg"
   inkscape:version="1.2.1 (9c6d41e410, 2022-07-14)"
   xmlns:inkscape="http://www.inkscape.org/namespaces/inkscape"
   xmlns:sodipodi="http://sodipodi.sourceforge.net/DTD/sodipodi-0.dtd"
   xmlns="http://www.w3.org/2000/svg"
   xmlns:svg="http://www.w3.org/2000/svg">
  <defs
     id="defs13">
    <rect
       x="456.62479"
       y="288.43323"
       width="236.97466"
       height="103.84336"
       id="rect14272" />
    <inkscape:perspective
       sodipodi:type="inkscape:persp3d"
       inkscape:vp_x="0 : 561.5 : 1"
       inkscape:vp_y="0 : 1000 : 0"
       inkscape:vp_z="794 : 561.5 : 1"
       inkscape:persp3d-origin="397 : 374.33333 : 1"
       id="perspective13105" />
  </defs>
  <sodipodi:namedview
     id="namedview11"
     pagecolor="#ffffff"
     bordercolor="#999999"
     borderopacity="1"
     inkscape:showpageshadow="0"
     inkscape:pageopacity="0"
     inkscape:pagecheckerboard="0"
     inkscape:deskcolor="#d1d1d1"
     showgrid="false"
     inkscape:zoom="1.6162066"
     inkscape:cx="377.11763"
     inkscape:cy="561.80937"
     inkscape:window-width="3840"
     inkscape:window-height="2120"
     inkscape:window-x="-12"
     inkscape:window-y="-12"
     inkscape:window-maximized="1"
     inkscape:current-layer="g15" />
  <g
     inkscape:groupmode="layer"
     inkscape:label="Image"
     id="g15">
    <rect
       style="fill:#7e553a;fill-opacity:1;stroke-width:0;paint-order:stroke fill markers"
       id="rect454"
       width="611.30798"
       height="467.14319"
       x="97.141052"
       y="249.96805" />
    <g
       sodipodi:type="inkscape:box3d"
       id="g13519"
       style="fill:#ff0000;fill-opacity:1;stroke-width:0;paint-order:stroke fill markers"
       inkscape:perspectiveID="#perspective13105"
       inkscape:corner0="4.0522363 : 0.34190289 : 0 : 1"
       inkscape:corner7="2.0554001 : -0.59832619 : 0.25 : 1">
      <path
         sodipodi:type="inkscape:box3dside"
         id="path13531"
         style="fill:#e9e9ff;fill-rule:evenodd;stroke:none;stroke-linejoin:round"
         inkscape:box3dsidetype="11"
         d="m 112.3111,532.3168 67.84863,-17.62996 V 799.13927 L 112.3111,709.64369 Z"
         points="180.15973,514.68684 180.15973,799.13927 112.3111,709.64369 112.3111,532.3168 " />
      <path
         sodipodi:type="inkscape:box3dside"
         id="path13521"
         style="fill:#353564;fill-rule:evenodd;stroke:none;stroke-linejoin:round"
         inkscape:box3dsidetype="6"
         d="m 78.579064,530.87273 v 186.10156 l 33.732036,-7.3306 V 532.3168 Z"
         points="78.579064,716.97429 112.3111,709.64369 112.3111,532.3168 78.579064,530.87273 " />
      <path
         sodipodi:type="inkscape:box3dside"
         id="path13529"
         style="fill:#005555"
         inkscape:box3dsidetype="13"
         d="m 78.579064,716.97429 51.354816,101.60918 50.22585,-19.4442 -67.84863,-89.49558 z"
         points="129.93388,818.58347 180.15973,799.13927 112.3111,709.64369 78.579064,716.97429 " />
      <path
         sodipodi:type="inkscape:box3dside"
         id="path13523"
         style="fill:#4d4d9f;fill-rule:evenodd;stroke:none;stroke-linejoin:round"
         inkscape:box3dsidetype="5"
         d="m 78.579064,530.87273 51.354816,-20.01625 50.22585,3.83036 -67.84863,17.62996 z"
         points="129.93388,510.85648 180.15973,514.68684 112.3111,532.3168 78.579064,530.87273 " />
      <path
         sodipodi:type="inkscape:box3dside"
         id="path13527"
         style="fill:#00d2ff"
         inkscape:box3dsidetype="14"
         d="m 129.93388,510.85648 v 307.72699 l 50.22585,-19.4442 V 514.68684 Z"
         points="129.93388,818.58347 180.15973,799.13927 180.15973,514.68684 129.93388,510.85648 " />
      <path
         sodipodi:type="inkscape:box3dside"
         id="path13525"
         style="fill:#008080"
         inkscape:box3dsidetype="3"
         d="M 78.579064,530.87273 129.93388,510.85648 V 818.58347 L 78.579064,716.97429 Z"
         points="129.93388,510.85648 129.93388,818.58347 78.579064,716.97429 78.579064,530.87273 " />
    </g>
    <g
       sodipodi:type="inkscape:box3d"
       id="g13533"
       style="fill:#ff0000;fill-opacity:1;stroke-width:0;paint-order:stroke fill markers"
       inkscape:perspectiveID="#perspective13105"
       inkscape:corner0="1.2036 : 0.46326319 : 0 : 1"
       inkscape:corner7="0.71102404 : -0.21248 : 0.25 : 1">
      <path
         sodipodi:type="inkscape:box3dside"
         id="path13545"
         style="fill:#e9e9ff;fill-rule:evenodd;stroke:none;stroke-linejoin:round"
         inkscape:box3dsidetype="11"
         d="m 242.7046,448.97289 60.96327,-28.2649 V 765.29488 L 242.7046,724.38175 Z"
         points="303.66787,420.70799 303.66787,765.29488 242.7046,724.38175 242.7046,448.97289 " />
      <path
         sodipodi:type="inkscape:box3dside"
         id="path13535"
         style="fill:#353564;fill-rule:evenodd;stroke:none;stroke-linejoin:round"
         inkscape:box3dsidetype="6"
         d="M 180.15974,436.20661 V 742.8608 L 242.7046,724.38175 V 448.97289 Z"
         points="180.15974,742.8608 242.7046,724.38175 242.7046,448.97289 180.15974,436.20661 " />
      <path
         sodipodi:type="inkscape:box3dside"
         id="path13543"
         style="fill:#005555"
         inkscape:box3dsidetype="13"
         d="m 180.15974,742.8608 51.86505,52.21083 71.64308,-29.77675 -60.96327,-40.91313 z"
         points="232.02479,795.07163 303.66787,765.29488 242.7046,724.38175 180.15974,742.8608 " />
      <path
         sodipodi:type="inkscape:box3dside"
         id="path13537"
         style="fill:#4d4d9f;fill-rule:evenodd;stroke:none;stroke-linejoin:round"
         inkscape:box3dsidetype="5"
         d="m 180.15974,436.20661 51.86505,-36.06993 71.64308,20.57131 -60.96327,28.2649 z"
         points="232.02479,400.13668 303.66787,420.70799 242.7046,448.97289 180.15974,436.20661 " />
      <path
         sodipodi:type="inkscape:box3dside"
         id="path13541"
         style="fill:#00d2ff"
         inkscape:box3dsidetype="14"
         d="m 232.02479,400.13668 v 394.93495 l 71.64308,-29.77675 V 420.70799 Z"
         points="232.02479,795.07163 303.66787,765.29488 303.66787,420.70799 232.02479,400.13668 " />
      <path
         sodipodi:type="inkscape:box3dside"
         id="path13539"
         style="fill:#008080"
         inkscape:box3dsidetype="3"
         d="m 180.15974,436.20661 51.86505,-36.06993 V 795.07163 L 180.15974,742.8608 Z"
         points="232.02479,400.13668 232.02479,795.07163 180.15974,742.8608 180.15974,436.20661 " />
    </g>
    <g
       sodipodi:type="inkscape:box3d"
       id="g13547"
       style="fill:#ff0000;fill-opacity:1;stroke-width:0;paint-order:stroke fill markers"
       inkscape:perspectiveID="#perspective13105"
       inkscape:corner0="0.30734936 : 0.48362848 : 0 : 1"
       inkscape:corner7="0.085675154 : -0.034088372 : 0.25 : 1">
      <path
         sodipodi:type="inkscape:box3dside"
         id="path13559"
         style="fill:#e9e9ff;fill-rule:evenodd;stroke:none;stroke-linejoin:round"
         inkscape:box3dsidetype="11"
         d="m 382.38048,371.13693 63.46146,-31.59345 v 387.60686 l -63.46146,-23.57879 z"
         points="445.84194,339.54348 445.84194,727.15034 382.38048,703.57155 382.38048,371.13693 " />
      <path
         sodipodi:type="inkscape:box3dside"
         id="path13549"
         style="fill:#353564;fill-rule:evenodd;stroke:none;stroke-linejoin:round"
         inkscape:box3dsidetype="6"
         d="m 303.66787,334.73444 v 396.00498 l 78.71261,-27.16787 V 371.13693 Z"
         points="303.66787,730.73942 382.38048,703.57155 382.38048,371.13693 303.66787,334.73444 " />
      <path
         sodipodi:type="inkscape:box3dside"
         id="path13557"
         style="fill:#005555"
         inkscape:box3dsidetype="13"
         d="m 303.66787,730.73942 62.0032,34.55546 80.17087,-38.14454 -63.46146,-23.57879 z"
         points="365.67107,765.29488 445.84194,727.15034 382.38048,703.57155 303.66787,730.73942 " />
      <path
         sodipodi:type="inkscape:box3dside"
         id="path13551"
         style="fill:#4d4d9f;fill-rule:evenodd;stroke:none;stroke-linejoin:round"
         inkscape:box3dsidetype="5"
         d="m 303.66787,334.73444 62.0032,-46.30121 80.17087,51.11025 -63.46146,31.59345 z"
         points="365.67107,288.43323 445.84194,339.54348 382.38048,371.13693 303.66787,334.73444 " />
      <path
         sodipodi:type="inkscape:box3dside"
         id="path13555"
         style="fill:#00d2ff"
         inkscape:box3dsidetype="14"
         d="m 365.67107,288.43323 v 476.86165 l 80.17087,-38.14454 V 339.54348 Z"
         points="365.67107,765.29488 445.84194,727.15034 445.84194,339.54348 365.67107,288.43323 " />
      <path
         sodipodi:type="inkscape:box3dside"
         id="path13553"
         style="fill:#008080"
         inkscape:box3dsidetype="3"
         d="m 303.66787,334.73444 62.0032,-46.30121 v 476.86165 l -62.0032,-34.55546 z"
         points="365.67107,288.43323 365.67107,765.29488 303.66787,730.73942 303.66787,334.73444 " />
    </g>
    <path
       style="fill:#008080;fill-opacity:1;stroke-width:0;paint-order:stroke fill markers"
       d="m 104.09978,766.88918 -25.215375,-49.97753 0.156696,-92.96809 0.156695,-92.96809 25.035664,-9.76786 c 13.76962,-5.37233 25.11619,-9.68735 25.2146,-9.58893 0.0984,0.0984 0.10877,68.81947 0.023,152.71348 l -0.15592,152.53455 z"
       id="path13784" />
    <path
       style="fill:#ffff00;fill-opacity:1;stroke-width:0;paint-order:stroke fill markers"
       d="M 130.24325,664.86489 V 511.38264 l 1.39215,-0.006 c 2.06402,-0.008 42.41633,3.05517 45.47686,3.45244 l 2.62961,0.34133 v 141.91681 141.91681 l -3.24834,1.22386 c -8.24337,3.10582 -45.29467,17.52819 -45.74464,17.80629 -0.2781,0.17188 -0.50564,-68.7545 -0.50564,-153.16974 z"
       id="path13857" />
    <path
       style="fill:#808000;fill-opacity:1;stroke-width:0;paint-order:stroke fill markers"
       d="M 114.53312,787.58125 C 106.403,771.45292 95.056991,749.03932 89.31976,737.77324 L 78.88843,717.28947 v -93.14218 c 0,-88.13887 0.05816,-93.16409 1.082782,-93.55027 0.59553,-0.22445 11.878625,-4.60962 25.073538,-9.74481 13.19492,-5.13519 24.12385,-9.20363 24.28651,-9.04097 0.16265,0.16266 0.22557,68.8754 0.13981,152.69499 l -0.15592,152.39924 z"
       id="path13928" />
    <path
       style="fill:#ff0000;fill-opacity:1;stroke-width:0;paint-order:stroke fill markers"
       d="M 232.33416,597.55704 V 400.55806 l 35.57713,10.19285 35.57714,10.19284 -0.007,172.05967 -0.007,172.05967 -35.0065,14.54022 c -19.25357,7.99712 -35.26024,14.63303 -35.57036,14.74646 -0.33859,0.12384 -0.56387,-78.50071 -0.56387,-196.79273 z"
       id="path13930" />
    <path
       style="fill:#800000;fill-opacity:1;stroke-width:0;paint-order:stroke fill markers"
       d="m 205.88333,768.31148 -25.52272,-25.5283 V 589.62721 436.47125 l 25.52272,-17.75135 25.52273,-17.75135 0.15658,98.41378 c 0.0861,54.12758 0.0861,142.52361 0,196.43562 l -0.15658,98.02184 z"
       id="path13932" />
    <path
       style="fill:#00ffff;fill-opacity:1;stroke-width:0;paint-order:stroke fill markers"
       d="M 365.98044,526.90439 V 289.02328 l 37.89738,24.18513 c 20.84356,13.30182 38.80228,24.72805 39.90827,25.39163 l 2.01088,1.20649 v 193.5031 193.5031 l -38.20675,18.1413 c -21.01371,9.97773 -38.97243,18.5216 -39.90826,18.98639 l -1.70152,0.84508 z"
       id="path14003" />
    <path
       style="fill:#00ffff;fill-opacity:1;stroke-width:0;paint-order:stroke fill markers"
       d="m 365.98044,526.85096 c 0,-130.50621 0.10033,-237.28402 0.22294,-237.28402 0.12262,0 17.73331,11.17149 39.13485,24.82552 21.40155,13.65404 39.25994,24.96023 39.68532,25.12488 0.61652,0.23862 0.76892,39.54355 0.75123,193.74183 l -0.0222,193.44248 -9.10412,4.26789 c -5.00726,2.34734 -22.78104,10.76984 -39.49729,18.71667 -16.71622,7.94683 -30.5681,14.44878 -30.78193,14.44878 -0.21384,0 -0.38879,-106.77781 -0.38879,-237.28403 z"
       id="path14074" />
    <path
       style="fill:#0000ff;fill-opacity:1;stroke-width:0;paint-order:stroke fill markers"
       d="m 365.98044,526.8411 c 0,-130.5575 0.23238,-237.28447 0.51639,-237.17104 0.28402,0.11344 18.2389,11.48265 39.89974,25.26493 l 39.38335,25.05867 0.009,193.42419 0.009,193.42417 -3.86708,1.73457 c -2.12689,0.954 -19.56936,9.19983 -38.76103,18.32405 -19.1917,9.12423 -35.41023,16.75335 -36.04121,16.95361 -1.1158,0.35415 -1.14724,-6.1405 -1.14724,-237.01315 z"
       id="path14076" />
    <path
       style="fill:#000080;fill-opacity:1;stroke-width:0;paint-order:stroke fill markers"
       d="m 334.73444,747.73542 -30.31791,-16.90415 -0.15564,-197.99353 -0.15564,-197.99353 30.36486,-22.69576 c 16.70067,-12.48267 30.48374,-22.57688 30.62903,-22.43159 0.14529,0.14529 0.1942,107.06234 0.10868,237.59344 l -0.15548,237.32927 z"
       id="path14147" />
    <text
       xml:space="preserve"
       id="text14270"
       style="font-size:70.6624px;line-height:1.8;font-family:Onyx;-inkscape-font-specification:'Onyx, Normal';white-space:pre;shape-inside:url(#rect14272);display:inline;fill:#ffffff;fill-opacity:1;stroke-width:0;paint-order:stroke fill markers" />
    <text
       xml:space="preserve"
       style="font-size:70.6624px;line-height:1;font-family:Onyx;-inkscape-font-specification:'Onyx, Normal';fill:#ffffff;fill-opacity:1;stroke-width:0;paint-order:stroke fill markers"
       x="470.23691"
       y="339.54349"
       id="text14388"
       inkscape:export-filename="text14388.png"
       inkscape:export-xdpi="96"
       inkscape:export-ydpi="96"><tspan
         sodipodi:role="line"
         x="470.23691"
         y="339.54349"
         id="tspan14390">Exploratory</tspan><tspan
         sodipodi:role="line"
         x="470.23691"
         y="410.20587"
         id="tspan14485">Data Analysis</tspan><tspan
         sodipodi:role="line"
         x="470.23691"
         y="480.86829"
         id="tspan14487" /></text>
    <text
       xml:space="preserve"
       style="font-size:46.6667px;line-height:1.8;font-family:Onyx;-inkscape-font-specification:'Onyx, Normal';fill:#ffffff;fill-opacity:1;stroke-width:0;paint-order:stroke fill markers"
       x="470.23691"
       y="457.67648"
       id="text14491"><tspan
         sodipodi:role="line"
         id="tspan14489"
         x="470.23691"
         y="457.67648">By: Salem Sinawi</tspan></text>
  </g>
</svg>
